<svg xmlns="http://www.w3.org/2000/svg" width="29" height="32"><path fill="#E4E7E7" d="M19.418 8.913l-.838-1.815-10 6 .838 1.815 10-6zm-10.837 10.001l10 6 .838-1.816-10-6-.838 1.816z"/><path fill="#26A6D1" d="M23 12.006c3.312 0 6-2.687 6-6s-2.688-6-6-6c-3.313 0-6 2.687-6 6s2.686 6 6 6zm0-9c1.656 0 3 1.343 3 3s-1.344 3-3 3c-1.655 0-3-1.343-3-3s1.345-3 3-3zm-17 6.999c-3.314 0-6 2.687-6 6s2.686 6 6 6c3.312 0 6-2.687 6-6s-2.688-6-6-6zm0 9c-1.658 0-3-1.343-3-3s1.342-3 3-3c1.656 0 3 1.343 3 3 0 1.658-1.343 3-3 3zm17 1c-3.313 0-6 2.687-6 6s2.687 6 6 6c3.312 0 6-2.687 6-6s-2.688-6-6-6zm0 9c-1.655 0-3-1.344-3-3 0-1.655 1.345-3 3-3 1.656 0 3 1.345 3 3 0 1.656-1.344 3-3 3z"/></svg>